<svg width="969" height="85" viewBox="0 0 969 85" fill="none" xmlns="http://www.w3.org/2000/svg">
<path d="M964.133 0H4.13281L101.835 8.68462C126.075 10.8393 149.01 20.6196 167.345 36.6214C184.797 51.8523 206.427 61.4797 229.466 63.8798C279.268 69.068 373.185 77.8275 455.042 79.6583C455.982 79.6793 456.824 79.0984 457.146 78.2151C458.939 73.2831 463.626 70 468.874 70H499.391C504.639 70 509.327 73.2831 511.12 78.2151C511.441 79.0984 512.284 79.6793 513.223 79.6583C595.08 77.8275 688.997 69.068 738.8 63.8798C761.839 61.4797 783.469 51.8523 800.921 36.6214C819.256 20.6196 842.19 10.8393 866.431 8.68462L964.133 0Z" fill="url(#paint0_linear_1_2755)"/>
<path d="M964.133 0H4.13281L101.835 8.68462C126.075 10.8393 149.01 20.6196 167.345 36.6214C184.797 51.8523 206.427 61.4797 229.466 63.8798C279.268 69.068 373.185 77.8275 455.042 79.6583C455.982 79.6793 456.824 79.0984 457.146 78.2151C458.939 73.2831 463.626 70 468.874 70H499.391C504.639 70 509.327 73.2831 511.12 78.2151C511.441 79.0984 512.284 79.6793 513.223 79.6583C595.08 77.8275 688.997 69.068 738.8 63.8798C761.839 61.4797 783.469 51.8523 800.921 36.6214C819.256 20.6196 842.19 10.8393 866.431 8.68462L964.133 0Z" fill="url(#paint1_linear_1_2755)"/>
<mask id="mask0_1_2755" style="mask-type:alpha" maskUnits="userSpaceOnUse" x="4" y="0" width="961" height="80">
<path d="M964.133 0H4.13281L101.835 8.68462C126.075 10.8393 149.01 20.6196 167.345 36.6214C184.797 51.8523 206.427 61.4797 229.466 63.8798C279.268 69.068 373.185 77.8275 455.042 79.6583C455.982 79.6793 456.824 79.0984 457.146 78.2151C458.939 73.2831 463.626 70 468.874 70H499.391C504.639 70 509.327 73.2831 511.12 78.2151C511.441 79.0984 512.284 79.6793 513.223 79.6583C595.08 77.8275 688.997 69.068 738.8 63.8798C761.839 61.4797 783.469 51.8523 800.921 36.6214C819.256 20.6196 842.19 10.8393 866.431 8.68462L964.133 0Z" fill="url(#paint2_linear_1_2755)"/>
</mask>
<g mask="url(#mask0_1_2755)">
<g opacity="0.08">
<path fill-rule="evenodd" clip-rule="evenodd" d="M57.4817 50.7291H76.2423L85.6225 34.1815L76.2423 17.6399H57.4817L48.096 34.1815L57.4817 50.7291ZM76.8228 51.7639H56.8925L46.9285 34.1813L56.8925 16.6127H76.8228L86.7901 34.1813L76.8228 51.7639Z" fill="white"/>
<path fill-rule="evenodd" clip-rule="evenodd" d="M57.4765 85.882H76.2448L85.6232 69.3316L76.2448 52.796H57.4765L48.0953 69.3316L57.4765 85.882ZM76.8252 86.9152H56.8928L46.9285 69.3317L56.8928 51.7639H76.8252L86.7901 69.3317L76.8252 86.9152Z" fill="white"/>
<path fill-rule="evenodd" clip-rule="evenodd" d="M86.1779 68.3066H104.944L114.323 51.7649L104.944 35.2178H86.1779L76.7989 51.7649L86.1779 68.3066ZM105.525 69.3396H85.5974L75.6288 51.7649L85.5974 34.1883H105.525L115.49 51.7649L105.525 69.3396Z" fill="white"/>
<path fill-rule="evenodd" clip-rule="evenodd" d="M28.7758 68.3123H47.5426L56.9225 51.7667L47.5426 35.2156H28.7758L19.4008 51.7667L28.7758 68.3123ZM48.1257 69.3396H28.1976L18.2281 51.7667L28.1976 34.1883H48.1257L58.0897 51.7667L48.1257 69.3396Z" fill="white"/>
<path fill-rule="evenodd" clip-rule="evenodd" d="M28.7758 101.86H47.5426L56.9225 85.3172L47.5426 68.7685H28.7758L19.4008 85.3172L28.7758 101.86ZM48.1257 102.893H28.1976L18.2281 85.3173L28.1976 67.7419H48.1257L58.0897 85.3173L48.1257 102.893Z" fill="white"/>
<path fill-rule="evenodd" clip-rule="evenodd" d="M28.7777 34.7597H47.5375L56.9199 18.2131L47.5375 1.66748H28.7777L19.3952 18.2131L28.7777 34.7597ZM48.1238 35.786H28.1918L18.2281 18.2129L28.1918 0.634735H48.1238L58.0897 18.2129L48.1238 35.786Z" fill="white"/>
<path fill-rule="evenodd" clip-rule="evenodd" d="M86.1793 34.7535H104.94L114.315 18.2075L104.94 1.66694H86.1793L76.7956 18.2075L86.1793 34.7535ZM105.518 35.786H85.5929L75.6288 18.2074L85.5929 0.634735H105.518L115.49 18.2074L105.518 35.786Z" fill="white"/>
<path fill-rule="evenodd" clip-rule="evenodd" d="M145.172 100.262H163.94L173.319 83.7256L163.94 67.1655H145.172L135.797 83.7256L145.172 100.262ZM164.521 101.295H144.592L134.624 83.7256L144.592 66.144H164.521L174.486 83.7256L164.521 101.295Z" fill="white"/>
<path fill-rule="evenodd" clip-rule="evenodd" d="M114.881 50.7371H133.645L143.024 34.187L133.645 17.6392H114.881L105.499 34.187L114.881 50.7371ZM134.228 51.7639H114.292L104.329 34.1869L114.292 16.6126H134.228L144.191 34.1869L134.228 51.7639Z" fill="white"/>
<path fill-rule="evenodd" clip-rule="evenodd" d="M143.581 33.1613H162.345L171.725 16.6111L162.345 0.0633204H143.581L134.2 16.6111L143.581 33.1613ZM162.929 34.1883H142.992L133.029 16.6112L142.992 -0.963013H162.929L172.891 16.6112L162.929 34.1883Z" fill="white"/>
<path fill-rule="evenodd" clip-rule="evenodd" d="M114.881 15.5857H133.645L143.024 -0.964476L133.645 -17.5123H114.881L105.499 -0.964476L114.881 15.5857ZM134.228 16.6126H114.292L104.329 -0.964422L114.292 -18.5387H134.228L144.191 -0.964422L134.228 16.6126Z" fill="white"/>
<path fill-rule="evenodd" clip-rule="evenodd" d="M114.875 84.2911H133.64L143.021 67.7433L133.64 51.2043H114.875L105.499 67.7433L114.875 84.2911ZM134.221 85.3174H114.291L104.329 67.7432L114.291 50.1662H134.221L144.191 67.7432L134.221 85.3174Z" fill="white"/>
<path fill-rule="evenodd" clip-rule="evenodd" d="M143.575 66.7153H162.34L171.721 50.1675L162.34 33.6285H143.575L134.199 50.1675L143.575 66.7153ZM162.921 67.7417H142.991L133.029 50.1674L142.991 32.5904H162.921L172.891 50.1674L162.921 67.7417Z" fill="white"/>
<path fill-rule="evenodd" clip-rule="evenodd" d="M202.573 100.262H221.341L230.719 83.7256L221.341 67.1655H202.573L193.197 83.7256L202.573 100.262ZM221.922 101.295H201.993L192.025 83.7256L201.993 66.144H221.922L231.886 83.7256L221.922 101.295Z" fill="white"/>
<path fill-rule="evenodd" clip-rule="evenodd" d="M172.282 50.7371H191.045L200.425 34.187L191.045 17.6392H172.282L162.9 34.187L172.282 50.7371ZM191.629 51.7639H171.693L161.73 34.1869L171.693 16.6126H191.629L201.591 34.1869L191.629 51.7639Z" fill="white"/>
<path fill-rule="evenodd" clip-rule="evenodd" d="M200.982 33.1613H219.746L229.125 16.6111L219.746 0.0633204H200.982L191.6 16.6111L200.982 33.1613ZM220.329 34.1883H200.393L190.43 16.6112L200.393 -0.963013H220.329L230.292 16.6112L220.329 34.1883Z" fill="white"/>
<path fill-rule="evenodd" clip-rule="evenodd" d="M172.282 15.5857H191.045L200.425 -0.964476L191.045 -17.5123H172.282L162.9 -0.964476L172.282 15.5857ZM191.629 16.6126H171.693L161.73 -0.964422L171.693 -18.5387H191.629L201.591 -0.964422L191.629 16.6126Z" fill="white"/>
<path fill-rule="evenodd" clip-rule="evenodd" d="M172.275 84.2911H191.04L200.422 67.7433L191.04 51.2043H172.275L162.9 67.7433L172.275 84.2911ZM191.621 85.3174H171.692L161.73 67.7432L171.692 50.1662H191.621L201.591 67.7432L191.621 85.3174Z" fill="white"/>
<path fill-rule="evenodd" clip-rule="evenodd" d="M200.976 66.7153H219.741L229.122 50.1675L219.741 33.6285H200.976L191.6 50.1675L200.976 66.7153ZM220.322 67.7417H200.392L190.43 50.1674L200.392 32.5904H220.322L230.292 50.1674L220.322 67.7417Z" fill="white"/>
<path fill-rule="evenodd" clip-rule="evenodd" d="M259.974 100.262H278.741L288.12 83.7256L278.741 67.1655H259.974L250.598 83.7256L259.974 100.262ZM279.323 101.295H259.393L249.425 83.7256L259.393 66.144H279.323L289.287 83.7256L279.323 101.295Z" fill="white"/>
<path fill-rule="evenodd" clip-rule="evenodd" d="M229.682 50.7371H248.446L257.826 34.187L248.446 17.6392H229.682L220.301 34.187L229.682 50.7371ZM249.03 51.7639H229.093L219.13 34.1869L229.093 16.6126H249.03L258.992 34.1869L249.03 51.7639Z" fill="white"/>
<path fill-rule="evenodd" clip-rule="evenodd" d="M258.383 33.1613H277.146L286.526 16.6111L277.146 0.0633204H258.383L249.001 16.6111L258.383 33.1613ZM277.73 34.1883H257.794L247.831 16.6112L257.794 -0.963013H277.73L287.692 16.6112L277.73 34.1883Z" fill="white"/>
<path fill-rule="evenodd" clip-rule="evenodd" d="M229.682 15.5857H248.446L257.826 -0.964476L248.446 -17.5123H229.682L220.301 -0.964476L229.682 15.5857ZM249.03 16.6126H229.093L219.13 -0.964422L229.093 -18.5387H249.03L258.992 -0.964422L249.03 16.6126Z" fill="white"/>
<path fill-rule="evenodd" clip-rule="evenodd" d="M229.676 84.2911H248.441L257.823 67.7433L248.441 51.2043H229.676L220.301 67.7433L229.676 84.2911ZM249.022 85.3174H229.092L219.13 67.7432L229.092 50.1662H249.022L258.992 67.7432L249.022 85.3174Z" fill="white"/>
<path fill-rule="evenodd" clip-rule="evenodd" d="M258.376 66.7153H277.141L286.523 50.1675L277.141 33.6285H258.376L249.001 50.1675L258.376 66.7153ZM277.722 67.7417H257.793L247.831 50.1674L257.793 32.5904H277.722L287.692 50.1674L277.722 67.7417Z" fill="white"/>
<path fill-rule="evenodd" clip-rule="evenodd" d="M317.374 100.262H336.142L345.521 83.7256L336.142 67.1655H317.374L307.999 83.7256L317.374 100.262ZM336.723 101.295H316.794L306.826 83.7256L316.794 66.144H336.723L346.688 83.7256L336.723 101.295Z" fill="white"/>
<path fill-rule="evenodd" clip-rule="evenodd" d="M287.083 50.7371H305.847L315.226 34.187L305.847 17.6392H287.083L277.701 34.187L287.083 50.7371ZM306.43 51.7639H286.494L276.531 34.1869L286.494 16.6126H306.43L316.393 34.1869L306.43 51.7639Z" fill="white"/>
<path fill-rule="evenodd" clip-rule="evenodd" d="M315.783 33.1613H334.547L343.927 16.6111L334.547 0.0633204H315.783L306.402 16.6111L315.783 33.1613ZM335.131 34.1883H315.194L305.232 16.6112L315.194 -0.963013H335.131L345.093 16.6112L335.131 34.1883Z" fill="white"/>
<path fill-rule="evenodd" clip-rule="evenodd" d="M287.083 15.5857H305.847L315.226 -0.964476L305.847 -17.5123H287.083L277.701 -0.964476L287.083 15.5857ZM306.43 16.6126H286.494L276.531 -0.964422L286.494 -18.5387H306.43L316.393 -0.964422L306.43 16.6126Z" fill="white"/>
<path fill-rule="evenodd" clip-rule="evenodd" d="M287.077 84.2911H305.842L315.223 67.7433L305.842 51.2043H287.077L277.701 67.7433L287.077 84.2911ZM306.423 85.3174H286.493L276.531 67.7432L286.493 50.1662H306.423L316.393 67.7432L306.423 85.3174Z" fill="white"/>
<path fill-rule="evenodd" clip-rule="evenodd" d="M315.777 66.7153H334.542L343.924 50.1675L334.542 33.6285H315.777L306.402 50.1675L315.777 66.7153ZM335.123 67.7417H315.193L305.232 50.1674L315.193 32.5904H335.123L345.093 50.1674L335.123 67.7417Z" fill="white"/>
<path fill-rule="evenodd" clip-rule="evenodd" d="M374.775 100.262H393.543L402.921 83.7256L393.543 67.1655H374.775L365.399 83.7256L374.775 100.262ZM394.124 101.295H374.195L364.227 83.7256L374.195 66.144H394.124L404.088 83.7256L394.124 101.295Z" fill="white"/>
<path fill-rule="evenodd" clip-rule="evenodd" d="M344.484 50.7371H363.247L372.627 34.187L363.247 17.6392H344.484L335.102 34.187L344.484 50.7371ZM363.831 51.7639H343.895L333.932 34.1869L343.895 16.6126H363.831L373.793 34.1869L363.831 51.7639Z" fill="white"/>
<path fill-rule="evenodd" clip-rule="evenodd" d="M373.184 33.1613H391.948L401.327 16.6111L391.948 0.0633204H373.184L363.802 16.6111L373.184 33.1613ZM392.531 34.1883H372.595L362.632 16.6112L372.595 -0.963013H392.531L402.494 16.6112L392.531 34.1883Z" fill="white"/>
<path fill-rule="evenodd" clip-rule="evenodd" d="M344.484 15.5857H363.247L372.627 -0.964476L363.247 -17.5123H344.484L335.102 -0.964476L344.484 15.5857ZM363.831 16.6126H343.895L333.932 -0.964422L343.895 -18.5387H363.831L373.793 -0.964422L363.831 16.6126Z" fill="white"/>
<path fill-rule="evenodd" clip-rule="evenodd" d="M344.477 84.2911H363.242L372.624 67.7433L363.242 51.2043H344.477L335.102 67.7433L344.477 84.2911ZM363.823 85.3174H343.894L333.932 67.7432L343.894 50.1662H363.823L373.793 67.7432L363.823 85.3174Z" fill="white"/>
<path fill-rule="evenodd" clip-rule="evenodd" d="M373.178 66.7153H391.943L401.324 50.1675L391.943 33.6285H373.178L363.802 50.1675L373.178 66.7153ZM392.524 67.7417H372.594L362.632 50.1674L372.594 32.5904H392.524L402.494 50.1674L392.524 67.7417Z" fill="white"/>
<path fill-rule="evenodd" clip-rule="evenodd" d="M432.176 100.262H450.943L460.322 83.7256L450.943 67.1655H432.176L422.8 83.7256L432.176 100.262ZM451.525 101.295H431.595L421.627 83.7256L431.595 66.144H451.525L461.489 83.7256L451.525 101.295Z" fill="white"/>
<path fill-rule="evenodd" clip-rule="evenodd" d="M401.885 50.7371H420.648L430.028 34.187L420.648 17.6392H401.885L392.503 34.187L401.885 50.7371ZM421.232 51.7639H401.295L391.333 34.1869L401.295 16.6126H421.232L431.194 34.1869L421.232 51.7639Z" fill="white"/>
<path fill-rule="evenodd" clip-rule="evenodd" d="M430.585 33.1613H449.348L458.728 16.6111L449.348 0.0633204H430.585L421.203 16.6111L430.585 33.1613ZM449.932 34.1883H429.996L420.033 16.6112L429.996 -0.963013H449.932L459.895 16.6112L449.932 34.1883Z" fill="white"/>
<path fill-rule="evenodd" clip-rule="evenodd" d="M401.885 15.5857H420.648L430.028 -0.964476L420.648 -17.5123H401.885L392.503 -0.964476L401.885 15.5857ZM421.232 16.6126H401.295L391.333 -0.964422L401.295 -18.5387H421.232L431.194 -0.964422L421.232 16.6126Z" fill="white"/>
<path fill-rule="evenodd" clip-rule="evenodd" d="M401.878 84.2911H420.643L430.025 67.7433L420.643 51.2043H401.878L392.503 67.7433L401.878 84.2911ZM421.224 85.3174H401.295L391.333 67.7432L401.295 50.1662H421.224L431.194 67.7432L421.224 85.3174Z" fill="white"/>
<path fill-rule="evenodd" clip-rule="evenodd" d="M430.579 66.7153H449.343L458.725 50.1675L449.343 33.6285H430.579L421.203 50.1675L430.579 66.7153ZM449.924 67.7417H429.995L420.033 50.1674L429.995 32.5904H449.924L459.895 50.1674L449.924 67.7417Z" fill="white"/>
<path fill-rule="evenodd" clip-rule="evenodd" d="M489.576 100.262H508.344L517.723 83.7256L508.344 67.1655H489.576L480.201 83.7256L489.576 100.262ZM508.925 101.295H488.996L479.028 83.7256L488.996 66.144H508.925L518.89 83.7256L508.925 101.295Z" fill="white"/>
<path fill-rule="evenodd" clip-rule="evenodd" d="M459.285 50.7371H478.049L487.428 34.187L478.049 17.6392H459.285L449.903 34.187L459.285 50.7371ZM478.632 51.7639H458.696L448.733 34.1869L458.696 16.6126H478.632L488.595 34.1869L478.632 51.7639Z" fill="white"/>
<path fill-rule="evenodd" clip-rule="evenodd" d="M487.985 33.1613H506.749L516.129 16.6111L506.749 0.0633204H487.985L478.604 16.6111L487.985 33.1613ZM507.333 34.1883H487.396L477.434 16.6112L487.396 -0.963013H507.333L517.295 16.6112L507.333 34.1883Z" fill="white"/>
<path fill-rule="evenodd" clip-rule="evenodd" d="M459.285 15.5857H478.049L487.428 -0.964476L478.049 -17.5123H459.285L449.903 -0.964476L459.285 15.5857ZM478.632 16.6126H458.696L448.733 -0.964422L458.696 -18.5387H478.632L488.595 -0.964422L478.632 16.6126Z" fill="white"/>
<path fill-rule="evenodd" clip-rule="evenodd" d="M459.279 84.2911H478.044L487.425 67.7433L478.044 51.2043H459.279L449.903 67.7433L459.279 84.2911ZM478.625 85.3174H458.695L448.733 67.7432L458.695 50.1662H478.625L488.595 67.7432L478.625 85.3174Z" fill="white"/>
<path fill-rule="evenodd" clip-rule="evenodd" d="M487.979 66.7153H506.744L516.126 50.1675L506.744 33.6285H487.979L478.604 50.1675L487.979 66.7153ZM507.325 67.7417H487.396L477.434 50.1674L487.396 32.5904H507.325L517.295 50.1674L507.325 67.7417Z" fill="white"/>
<path fill-rule="evenodd" clip-rule="evenodd" d="M546.977 100.262H565.745L575.124 83.7256L565.745 67.1655H546.977L537.602 83.7256L546.977 100.262ZM566.326 101.295H546.397L536.429 83.7256L546.397 66.144H566.326L576.29 83.7256L566.326 101.295Z" fill="white"/>
<path fill-rule="evenodd" clip-rule="evenodd" d="M516.686 50.7371H535.449L544.829 34.187L535.449 17.6392H516.686L507.304 34.187L516.686 50.7371ZM536.033 51.7639H516.097L506.134 34.1869L516.097 16.6126H536.033L545.995 34.1869L536.033 51.7639Z" fill="white"/>
<path fill-rule="evenodd" clip-rule="evenodd" d="M545.386 33.1613H564.15L573.529 16.6111L564.15 0.0633204H545.386L536.004 16.6111L545.386 33.1613ZM564.734 34.1883H544.797L534.834 16.6112L544.797 -0.963013H564.734L574.696 16.6112L564.734 34.1883Z" fill="white"/>
<path fill-rule="evenodd" clip-rule="evenodd" d="M516.686 15.5857H535.449L544.829 -0.964476L535.449 -17.5123H516.686L507.304 -0.964476L516.686 15.5857ZM536.033 16.6126H516.097L506.134 -0.964422L516.097 -18.5387H536.033L545.995 -0.964422L536.033 16.6126Z" fill="white"/>
<path fill-rule="evenodd" clip-rule="evenodd" d="M516.68 84.2911H535.444L544.826 67.7433L535.444 51.2043H516.68L507.304 67.7433L516.68 84.2911ZM536.025 85.3174H516.096L506.134 67.7432L516.096 50.1662H536.025L545.995 67.7432L536.025 85.3174Z" fill="white"/>
<path fill-rule="evenodd" clip-rule="evenodd" d="M545.38 66.7153H564.145L573.526 50.1675L564.145 33.6285H545.38L536.004 50.1675L545.38 66.7153ZM564.726 67.7417H544.796L534.834 50.1674L544.796 32.5904H564.726L574.696 50.1674L564.726 67.7417Z" fill="white"/>
<path fill-rule="evenodd" clip-rule="evenodd" d="M604.378 100.262H623.145L632.524 83.7256L623.145 67.1655H604.378L595.002 83.7256L604.378 100.262ZM623.727 101.295H603.797L593.829 83.7256L603.797 66.144H623.727L633.691 83.7256L623.727 101.295Z" fill="white"/>
<path fill-rule="evenodd" clip-rule="evenodd" d="M574.087 50.7371H592.85L602.23 34.187L592.85 17.6392H574.087L564.705 34.187L574.087 50.7371ZM593.434 51.7639H573.497L563.535 34.1869L573.497 16.6126H593.434L603.396 34.1869L593.434 51.7639Z" fill="white"/>
<path fill-rule="evenodd" clip-rule="evenodd" d="M602.787 33.1613H621.55L630.93 16.6111L621.55 0.0633204H602.787L593.405 16.6111L602.787 33.1613ZM622.134 34.1883H602.198L592.235 16.6112L602.198 -0.963013H622.134L632.097 16.6112L622.134 34.1883Z" fill="white"/>
<path fill-rule="evenodd" clip-rule="evenodd" d="M574.087 15.5857H592.85L602.23 -0.964476L592.85 -17.5123H574.087L564.705 -0.964476L574.087 15.5857ZM593.434 16.6126H573.497L563.535 -0.964422L573.497 -18.5387H593.434L603.396 -0.964422L593.434 16.6126Z" fill="white"/>
<path fill-rule="evenodd" clip-rule="evenodd" d="M574.08 84.2911H592.845L602.227 67.7433L592.845 51.2043H574.08L564.705 67.7433L574.08 84.2911ZM593.426 85.3174H573.497L563.535 67.7432L573.497 50.1662H593.426L603.396 67.7432L593.426 85.3174Z" fill="white"/>
<path fill-rule="evenodd" clip-rule="evenodd" d="M602.781 66.7153H621.545L630.927 50.1675L621.545 33.6285H602.781L593.405 50.1675L602.781 66.7153ZM622.126 67.7417H602.197L592.235 50.1674L602.197 32.5904H622.126L632.097 50.1674L622.126 67.7417Z" fill="white"/>
<path fill-rule="evenodd" clip-rule="evenodd" d="M661.779 100.262H680.546L689.925 83.7256L680.546 67.1655H661.779L652.403 83.7256L661.779 100.262ZM681.127 101.295H661.198L651.23 83.7256L661.198 66.144H681.127L691.092 83.7256L681.127 101.295Z" fill="white"/>
<path fill-rule="evenodd" clip-rule="evenodd" d="M631.487 50.7371H650.251L659.63 34.187L650.251 17.6392H631.487L622.105 34.187L631.487 50.7371ZM650.835 51.7639H630.898L620.935 34.1869L630.898 16.6126H650.835L660.797 34.1869L650.835 51.7639Z" fill="white"/>
<path fill-rule="evenodd" clip-rule="evenodd" d="M660.188 33.1613H678.951L688.331 16.6111L678.951 0.0633204H660.188L650.806 16.6111L660.188 33.1613ZM679.535 34.1883H659.598L649.636 16.6112L659.598 -0.963013H679.535L689.497 16.6112L679.535 34.1883Z" fill="white"/>
<path fill-rule="evenodd" clip-rule="evenodd" d="M631.487 15.5857H650.251L659.63 -0.964476L650.251 -17.5123H631.487L622.105 -0.964476L631.487 15.5857ZM650.835 16.6126H630.898L620.935 -0.964422L630.898 -18.5387H650.835L660.797 -0.964422L650.835 16.6126Z" fill="white"/>
<path fill-rule="evenodd" clip-rule="evenodd" d="M631.481 84.2911H650.246L659.627 67.7433L650.246 51.2043H631.481L622.105 67.7433L631.481 84.2911ZM650.827 85.3174H630.897L620.935 67.7432L630.897 50.1662H650.827L660.797 67.7432L650.827 85.3174Z" fill="white"/>
<path fill-rule="evenodd" clip-rule="evenodd" d="M660.181 66.7153H678.946L688.328 50.1675L678.946 33.6285H660.181L650.806 50.1675L660.181 66.7153ZM679.527 67.7417H659.598L649.636 50.1674L659.598 32.5904H679.527L689.497 50.1674L679.527 67.7417Z" fill="white"/>
<path fill-rule="evenodd" clip-rule="evenodd" d="M719.179 100.262H737.947L747.326 83.7256L737.947 67.1655H719.179L709.804 83.7256L719.179 100.262ZM738.528 101.295H718.599L708.631 83.7256L718.599 66.144H738.528L748.492 83.7256L738.528 101.295Z" fill="white"/>
<path fill-rule="evenodd" clip-rule="evenodd" d="M688.888 50.7371H707.652L717.031 34.187L707.652 17.6392H688.888L679.506 34.187L688.888 50.7371ZM708.235 51.7639H688.299L678.336 34.1869L688.299 16.6126H708.235L718.198 34.1869L708.235 51.7639Z" fill="white"/>
<path fill-rule="evenodd" clip-rule="evenodd" d="M717.588 33.1613H736.352L745.731 16.6111L736.352 0.0633204H717.588L708.206 16.6111L717.588 33.1613ZM736.936 34.1883H716.999L707.036 16.6112L716.999 -0.963013H736.936L746.898 16.6112L736.936 34.1883Z" fill="white"/>
<path fill-rule="evenodd" clip-rule="evenodd" d="M688.888 15.5857H707.652L717.031 -0.964476L707.652 -17.5123H688.888L679.506 -0.964476L688.888 15.5857ZM708.235 16.6126H688.299L678.336 -0.964422L688.299 -18.5387H708.235L718.198 -0.964422L708.235 16.6126Z" fill="white"/>
<path fill-rule="evenodd" clip-rule="evenodd" d="M688.882 84.2911H707.646L717.028 67.7433L707.646 51.2043H688.882L679.506 67.7433L688.882 84.2911ZM708.227 85.3174H688.298L678.336 67.7432L688.298 50.1662H708.227L718.198 67.7432L708.227 85.3174Z" fill="white"/>
<path fill-rule="evenodd" clip-rule="evenodd" d="M717.582 66.7153H736.347L745.728 50.1675L736.347 33.6285H717.582L708.206 50.1675L717.582 66.7153ZM736.928 67.7417H716.998L707.036 50.1674L716.998 32.5904H736.928L746.898 50.1674L736.928 67.7417Z" fill="white"/>
<path fill-rule="evenodd" clip-rule="evenodd" d="M776.58 100.262H795.347L804.726 83.7256L795.347 67.1655H776.58L767.204 83.7256L776.58 100.262ZM795.929 101.295H775.999L766.031 83.7256L775.999 66.144H795.929L805.893 83.7256L795.929 101.295Z" fill="white"/>
<path fill-rule="evenodd" clip-rule="evenodd" d="M746.289 50.7371H765.052L774.432 34.187L765.052 17.6392H746.289L736.907 34.187L746.289 50.7371ZM765.636 51.7639H745.699L735.737 34.1869L745.699 16.6126H765.636L775.598 34.1869L765.636 51.7639Z" fill="white"/>
<path fill-rule="evenodd" clip-rule="evenodd" d="M774.989 33.1613H793.753L803.132 16.6111L793.753 0.0633204H774.989L765.607 16.6111L774.989 33.1613ZM794.336 34.1883H774.4L764.437 16.6112L774.4 -0.963013H794.336L804.299 16.6112L794.336 34.1883Z" fill="white"/>
<path fill-rule="evenodd" clip-rule="evenodd" d="M746.289 15.5857H765.052L774.432 -0.964476L765.052 -17.5123H746.289L736.907 -0.964476L746.289 15.5857ZM765.636 16.6126H745.699L735.737 -0.964422L745.699 -18.5387H765.636L775.598 -0.964422L765.636 16.6126Z" fill="white"/>
<path fill-rule="evenodd" clip-rule="evenodd" d="M746.282 84.2911H765.047L774.429 67.7433L765.047 51.2043H746.282L736.907 67.7433L746.282 84.2911ZM765.628 85.3174H745.699L735.737 67.7432L745.699 50.1662H765.628L775.598 67.7432L765.628 85.3174Z" fill="white"/>
<path fill-rule="evenodd" clip-rule="evenodd" d="M774.983 66.7153H793.747L803.129 50.1675L793.747 33.6285H774.983L765.607 50.1675L774.983 66.7153ZM794.328 67.7417H774.399L764.437 50.1674L774.399 32.5904H794.328L804.299 50.1674L794.328 67.7417Z" fill="white"/>
<path fill-rule="evenodd" clip-rule="evenodd" d="M833.981 100.262H852.748L862.127 83.7256L852.748 67.1655H833.981L824.605 83.7256L833.981 100.262ZM853.33 101.295H833.4L823.432 83.7256L833.4 66.144H853.33L863.294 83.7256L853.33 101.295Z" fill="white"/>
<path fill-rule="evenodd" clip-rule="evenodd" d="M803.689 50.7371H822.453L831.833 34.187L822.453 17.6392H803.689L794.308 34.187L803.689 50.7371ZM823.037 51.7639H803.1L793.137 34.1869L803.1 16.6126H823.037L832.999 34.1869L823.037 51.7639Z" fill="white"/>
<path fill-rule="evenodd" clip-rule="evenodd" d="M832.39 33.1613H851.153L860.533 16.6111L851.153 0.0633204H832.39L823.008 16.6111L832.39 33.1613ZM851.737 34.1883H831.8L821.838 16.6112L831.8 -0.963013H851.737L861.699 16.6112L851.737 34.1883Z" fill="white"/>
<path fill-rule="evenodd" clip-rule="evenodd" d="M803.689 15.5857H822.453L831.833 -0.964476L822.453 -17.5123H803.689L794.308 -0.964476L803.689 15.5857ZM823.037 16.6126H803.1L793.137 -0.964422L803.1 -18.5387H823.037L832.999 -0.964422L823.037 16.6126Z" fill="white"/>
<path fill-rule="evenodd" clip-rule="evenodd" d="M803.683 84.2911H822.448L831.829 67.7433L822.448 51.2043H803.683L794.307 67.7433L803.683 84.2911ZM823.029 85.3174H803.099L793.137 67.7432L803.099 50.1662H823.029L832.999 67.7432L823.029 85.3174Z" fill="white"/>
<path fill-rule="evenodd" clip-rule="evenodd" d="M832.383 66.7153H851.148L860.53 50.1675L851.148 33.6285H832.383L823.008 50.1675L832.383 66.7153ZM851.729 67.7417H831.8L821.838 50.1674L831.8 32.5904H851.729L861.699 50.1674L851.729 67.7417Z" fill="white"/>
<path fill-rule="evenodd" clip-rule="evenodd" d="M891.381 100.262H910.149L919.528 83.7256L910.149 67.1655H891.381L882.006 83.7256L891.381 100.262ZM910.73 101.295H890.801L880.833 83.7256L890.801 66.144H910.73L920.694 83.7256L910.73 101.295Z" fill="white"/>
<path fill-rule="evenodd" clip-rule="evenodd" d="M861.09 50.7371H879.854L889.233 34.187L879.854 17.6392H861.09L851.708 34.187L861.09 50.7371ZM880.437 51.7639H860.501L850.538 34.1869L860.501 16.6126H880.437L890.4 34.1869L880.437 51.7639Z" fill="white"/>
<path fill-rule="evenodd" clip-rule="evenodd" d="M889.79 33.1613H908.554L917.933 16.6111L908.554 0.0633204H889.79L880.408 16.6111L889.79 33.1613ZM909.138 34.1883H889.201L879.238 16.6112L889.201 -0.963013H909.138L919.1 16.6112L909.138 34.1883Z" fill="white"/>
<path fill-rule="evenodd" clip-rule="evenodd" d="M861.09 15.5857H879.854L889.233 -0.964476L879.854 -17.5123H861.09L851.708 -0.964476L861.09 15.5857ZM880.437 16.6126H860.501L850.538 -0.964422L860.501 -18.5387H880.437L890.4 -0.964422L880.437 16.6126Z" fill="white"/>
<path fill-rule="evenodd" clip-rule="evenodd" d="M861.084 84.2911H879.849L889.23 67.7433L879.849 51.2043H861.084L851.708 67.7433L861.084 84.2911ZM880.429 85.3174H860.5L850.538 67.7432L860.5 50.1662H880.429L890.4 67.7432L880.429 85.3174Z" fill="white"/>
<path fill-rule="evenodd" clip-rule="evenodd" d="M889.784 66.7153H908.549L917.93 50.1675L908.549 33.6285H889.784L880.408 50.1675L889.784 66.7153ZM909.13 67.7417H889.2L879.238 50.1674L889.2 32.5904H909.13L919.1 50.1674L909.13 67.7417Z" fill="white"/>
<path fill-rule="evenodd" clip-rule="evenodd" d="M948.782 100.262H967.55L976.928 83.7256L967.55 67.1655H948.782L939.406 83.7256L948.782 100.262ZM968.131 101.295H948.202L938.234 83.7256L948.202 66.144H968.131L978.095 83.7256L968.131 101.295Z" fill="white"/>
<path fill-rule="evenodd" clip-rule="evenodd" d="M918.491 50.7371H937.254L946.634 34.187L937.254 17.6392H918.491L909.109 34.187L918.491 50.7371ZM937.838 51.7639H917.902L907.939 34.1869L917.902 16.6126H937.838L947.8 34.1869L937.838 51.7639Z" fill="white"/>
<path fill-rule="evenodd" clip-rule="evenodd" d="M947.191 33.1613H965.955L975.334 16.6111L965.955 0.0633204H947.191L937.809 16.6111L947.191 33.1613ZM966.538 34.1883H946.602L936.639 16.6112L946.602 -0.963013H966.538L976.501 16.6112L966.538 34.1883Z" fill="white"/>
<path fill-rule="evenodd" clip-rule="evenodd" d="M918.491 15.5857H937.254L946.634 -0.964476L937.254 -17.5123H918.491L909.109 -0.964476L918.491 15.5857ZM937.838 16.6126H917.902L907.939 -0.964422L917.902 -18.5387H937.838L947.8 -0.964422L937.838 16.6126Z" fill="white"/>
<path fill-rule="evenodd" clip-rule="evenodd" d="M918.484 84.2911H937.249L946.631 67.7433L937.249 51.2043H918.484L909.109 67.7433L918.484 84.2911ZM937.83 85.3174H917.901L907.939 67.7432L917.901 50.1662H937.83L947.8 67.7432L937.83 85.3174Z" fill="white"/>
<path fill-rule="evenodd" clip-rule="evenodd" d="M947.185 66.7153H965.95L975.331 50.1675L965.95 33.6285H947.185L937.809 50.1675L947.185 66.7153ZM966.531 67.7417H946.601L936.639 50.1674L946.601 32.5904H966.531L976.501 50.1674L966.531 67.7417Z" fill="white"/>
<mask id="mask1_1_2755" style="mask-type:luminance" maskUnits="userSpaceOnUse" x="47" y="-17" width="40" height="36">
<path fill-rule="evenodd" clip-rule="evenodd" d="M47.0148 -16.5099H86.6064V18.0532H47.0148V-16.5099Z" fill="white"/>
</mask>
<g mask="url(#mask1_1_2755)">
<path fill-rule="evenodd" clip-rule="evenodd" d="M57.4966 17.0435H76.1301L85.4468 0.774422L76.1301 -15.4892H57.4966L48.1744 0.774422L57.4966 17.0435ZM76.7067 18.0532H56.9114L47.0148 0.774343L56.9114 -16.51H76.7067L86.6064 0.774343L76.7067 18.0532Z" fill="white"/>
</g>
<path fill-rule="evenodd" clip-rule="evenodd" d="M0.080163 52.3292H18.8375L28.22 35.7847L18.8375 19.2485H0.080163L-9.30282 35.7847L0.080163 52.3292ZM19.4265 53.3617H-0.508869L-10.4722 35.7846L-0.508869 18.2104H19.4265L29.3894 35.7846L19.4265 53.3617Z" fill="white"/>
<path fill-rule="evenodd" clip-rule="evenodd" d="M86.1779 101.86H104.944L114.323 85.3168L104.944 68.7794H86.1779L76.7989 85.3168L86.1779 101.86ZM105.525 102.893H85.5974L75.6288 85.3168L85.5974 67.7419H105.525L115.49 85.3168L105.525 102.893Z" fill="white"/>
</g>
</g>
<path d="M4.13281 0L101.835 8.68462C126.075 10.8393 149.01 20.6196 167.345 36.6214C184.797 51.8523 206.427 61.4798 229.466 63.8798C276.074 68.7352 361.318 76.7184 439.156 79.2233C449.591 79.5591 458.692 70.1913 469.133 70.1913H499.633C510.073 70.1913 518.674 79.5591 529.11 79.2233C606.947 76.7184 692.192 68.7352 738.8 63.8798C761.839 61.4798 783.469 51.8523 800.921 36.6214C819.256 20.6196 842.19 10.8393 866.431 8.68462L964.133 0V-10L866.431 -1.31538C842.19 0.839326 819.256 10.6196 800.921 26.6214C783.469 41.8523 761.839 51.4797 738.8 53.8798C692.297 58.7242 607.333 67.5431 529.638 70.1913C518.887 70.5577 508.577 61 497.819 61H470.446C459.689 61 449.379 70.5577 438.627 70.1913C360.933 67.5431 275.968 58.7242 229.466 53.8798C206.427 51.4797 184.797 41.8523 167.345 26.6214C149.01 10.6196 126.075 0.839327 101.835 -1.31538L4.13281 -10V0Z" fill="url(#paint3_linear_1_2755)"/>
<path d="M460.633 71L455.633 79H443.133L460.633 71Z" fill="url(#paint4_linear_1_2755)"/>
<path d="M508.133 71L512.633 79H525.133L508.133 71Z" fill="url(#paint5_linear_1_2755)"/>
<g filter="url(#filter0_f_1_2755)">
<path d="M4.13281 -9L101.835 -0.315376C126.075 1.83933 149.01 11.6196 167.345 27.6214C184.797 42.8523 206.427 52.4797 229.466 54.8798C275.968 59.7242 360.933 68.5431 438.627 71.1913C449.379 71.5577 459.689 62 470.446 62H497.819C508.577 62 518.887 71.5577 529.638 71.1913C607.333 68.5431 692.297 59.7242 738.8 54.8798C761.839 52.4797 783.469 42.8523 800.921 27.6214C819.256 11.6196 842.19 1.83933 866.431 -0.315377L964.133 -9" stroke="url(#paint6_linear_1_2755)" stroke-opacity="0.32"/>
</g>
<g filter="url(#filter1_f_1_2755)">
<path d="M4.13281 -1L101.835 7.68462C126.075 9.83933 149.01 19.6196 167.345 35.6214C184.797 50.8523 206.427 60.4797 229.466 62.8798C279.586 68.1011 374.386 76.9394 456.608 78.6925C458.724 72.8736 464.255 69 470.446 69H497.819C504.011 69 509.541 72.8736 511.657 78.6925C593.88 76.9394 688.679 68.1011 738.8 62.8798C761.839 60.4797 783.469 50.8523 800.921 35.6214C819.256 19.6196 842.19 9.83933 866.431 7.68462L964.133 -1" stroke="url(#paint7_linear_1_2755)" stroke-width="3"/>
</g>
<path d="M4.13281 -1L101.835 7.68462C126.075 9.83933 149.01 19.6196 167.345 35.6214C184.797 50.8523 206.427 60.4797 229.466 62.8798C279.28 68.0692 373.228 76.8315 455.098 78.6596C456.004 78.6798 456.817 78.1196 457.126 77.2677C458.907 72.3717 463.709 69.2486 468.912 69.5153C473.687 69.7601 479.538 70 484.133 70C488.727 70 494.579 69.7601 499.353 69.5153C504.556 69.2486 509.359 72.3717 511.139 77.2677C511.449 78.1196 512.261 78.6798 513.168 78.6596C595.038 76.8315 688.986 68.0692 738.8 62.8798C761.839 60.4797 783.469 50.8523 800.921 35.6214C819.256 19.6196 842.19 9.83933 866.431 7.68462L964.133 -1" stroke="url(#paint8_linear_1_2755)" stroke-width="2"/>
<g filter="url(#filter2_d_1_2755)">
<path d="M464.425 76.7701C464.845 75.7194 465.903 75.0679 467.032 75.1583C470.551 75.4402 478.22 76 483.633 76C489.046 76 496.715 75.4402 500.234 75.1583C501.362 75.0679 502.421 75.7194 502.841 76.7701C503.482 78.3737 502.391 80.1353 500.668 80.2545C496.386 80.5507 489.005 81 483.633 81C478.26 81 470.88 80.5507 466.597 80.2545C464.874 80.1353 463.783 78.3737 464.425 76.7701Z" fill="#4B81FF"/>
<path d="M464.425 76.7701C464.845 75.7194 465.903 75.0679 467.032 75.1583C470.551 75.4402 478.22 76 483.633 76C489.046 76 496.715 75.4402 500.234 75.1583C501.362 75.0679 502.421 75.7194 502.841 76.7701C503.482 78.3737 502.391 80.1353 500.668 80.2545C496.386 80.5507 489.005 81 483.633 81C478.26 81 470.88 80.5507 466.597 80.2545C464.874 80.1353 463.783 78.3737 464.425 76.7701Z" fill="white" fill-opacity="0.2"/>
</g>
<defs>
<filter id="filter0_f_1_2755" x="2.08855" y="-11.498" width="964.088" height="85.1996" filterUnits="userSpaceOnUse" color-interpolation-filters="sRGB">
<feFlood flood-opacity="0" result="BackgroundImageFix"/>
<feBlend mode="normal" in="SourceGraphic" in2="BackgroundImageFix" result="shape"/>
<feGaussianBlur stdDeviation="1" result="effect1_foregroundBlur_1_2755"/>
</filter>
<filter id="filter1_f_1_2755" x="0" y="-6.49411" width="968.266" height="90.7092" filterUnits="userSpaceOnUse" color-interpolation-filters="sRGB">
<feFlood flood-opacity="0" result="BackgroundImageFix"/>
<feBlend mode="normal" in="SourceGraphic" in2="BackgroundImageFix" result="shape"/>
<feGaussianBlur stdDeviation="2" result="effect1_foregroundBlur_1_2755"/>
</filter>
<filter id="filter2_d_1_2755" x="460.239" y="71.15" width="46.7877" height="13.85" filterUnits="userSpaceOnUse" color-interpolation-filters="sRGB">
<feFlood flood-opacity="0" result="BackgroundImageFix"/>
<feColorMatrix in="SourceAlpha" type="matrix" values="0 0 0 0 0 0 0 0 0 0 0 0 0 0 0 0 0 0 127 0" result="hardAlpha"/>
<feOffset/>
<feGaussianBlur stdDeviation="2"/>
<feComposite in2="hardAlpha" operator="out"/>
<feColorMatrix type="matrix" values="0 0 0 0 0.886275 0 0 0 0 0.870588 0 0 0 0 0.988235 0 0 0 1 0"/>
<feBlend mode="normal" in2="BackgroundImageFix" result="effect1_dropShadow_1_2755"/>
<feBlend mode="normal" in="SourceGraphic" in2="effect1_dropShadow_1_2755" result="shape"/>
</filter>
<linearGradient id="paint0_linear_1_2755" x1="484.133" y1="0" x2="484.133" y2="79.6925" gradientUnits="userSpaceOnUse">
<stop stop-color="#4B81FF" stop-opacity="0"/>
<stop offset="1" stop-color="#B3C8FF" stop-opacity="0.8"/>
</linearGradient>
<linearGradient id="paint1_linear_1_2755" x1="484.133" y1="0" x2="484.133" y2="79.6925" gradientUnits="userSpaceOnUse">
<stop stop-color="#4B81FF" stop-opacity="0"/>
<stop offset="1" stop-color="#B3C8FF" stop-opacity="0.8"/>
</linearGradient>
<linearGradient id="paint2_linear_1_2755" x1="484.133" y1="0" x2="484.133" y2="79.6925" gradientUnits="userSpaceOnUse">
<stop stop-color="#6A315F" stop-opacity="0.66"/>
<stop offset="1" stop-color="#6A315F"/>
</linearGradient>
<linearGradient id="paint3_linear_1_2755" x1="4.13281" y1="-10" x2="964.133" y2="-10.0001" gradientUnits="userSpaceOnUse">
<stop stop-color="#4B81FF" stop-opacity="0"/>
<stop offset="0.5" stop-color="#4B81FF"/>
<stop offset="0.979167" stop-color="#4B81FF" stop-opacity="0"/>
</linearGradient>
<linearGradient id="paint4_linear_1_2755" x1="4.13281" y1="-10" x2="964.133" y2="-10.0001" gradientUnits="userSpaceOnUse">
<stop stop-color="#4B81FF" stop-opacity="0"/>
<stop offset="0.5" stop-color="#4B81FF"/>
<stop offset="0.979167" stop-color="#4B81FF" stop-opacity="0"/>
</linearGradient>
<linearGradient id="paint5_linear_1_2755" x1="4.13281" y1="-10" x2="964.133" y2="-10.0001" gradientUnits="userSpaceOnUse">
<stop stop-color="#4B81FF" stop-opacity="0"/>
<stop offset="0.5" stop-color="#4B81FF"/>
<stop offset="0.979167" stop-color="#4B81FF" stop-opacity="0"/>
</linearGradient>
<linearGradient id="paint6_linear_1_2755" x1="4.13281" y1="-9" x2="964.133" y2="-9" gradientUnits="userSpaceOnUse">
<stop stop-color="#E4E1FD" stop-opacity="0"/>
<stop offset="0.495979" stop-color="#E4E1FD"/>
<stop offset="1" stop-color="#E4E1FD" stop-opacity="0"/>
</linearGradient>
<linearGradient id="paint7_linear_1_2755" x1="4.13281" y1="-1" x2="964.133" y2="-1" gradientUnits="userSpaceOnUse">
<stop offset="0.03125" stop-color="#D7E6FF" stop-opacity="0"/>
<stop offset="0.498021" stop-color="#D7E6FF"/>
<stop offset="0.96875" stop-color="#D7E6FF" stop-opacity="0"/>
</linearGradient>
<linearGradient id="paint8_linear_1_2755" x1="4.13281" y1="-1" x2="964.133" y2="-1" gradientUnits="userSpaceOnUse">
<stop offset="0.03125" stop-color="#D7E6FF" stop-opacity="0"/>
<stop offset="0.498021" stop-color="#D7E6FF"/>
<stop offset="0.96875" stop-color="#D7E6FF" stop-opacity="0"/>
</linearGradient>
</defs>
</svg>
